<svg width="16" height="16" viewBox="0 0 16 16" fill="none" xmlns="http://www.w3.org/2000/svg">
<path d="M7.385 15.293L7.193 15.163C6.23208 14.4907 5.33917 13.726 4.527 12.88C3.1 11.385 1.5 9.144 1.5 6.499C1.5 3.245 4.141 0 8 0C11.859 0 14.5 3.245 14.5 6.5C14.5 9.145 12.9 11.386 11.473 12.879C10.6608 13.725 9.76792 14.4897 8.807 15.162C8.72567 15.2187 8.66167 15.262 8.615 15.292C8.412 15.427 8.205 15.555 8 15.685C7.795 15.555 7.588 15.427 7.385 15.293ZM8 8.5C8.53043 8.5 9.03914 8.28929 9.41421 7.91421C9.78929 7.53914 10 7.03043 10 6.5C10 5.96957 9.78929 5.46086 9.41421 5.08579C9.03914 4.71071 8.53043 4.5 8 4.5C7.46957 4.5 6.96086 4.71071 6.58579 5.08579C6.21071 5.46086 6 5.96957 6 6.5C6 7.03043 6.21071 7.53914 6.58579 7.91421C6.96086 8.28929 7.46957 8.5 8 8.5Z" fill="#006940"/>
</svg>
